<?xml version="1.0" standalone="no"?>
<!DOCTYPE svg PUBLIC "-//W3C//DTD SVG 20010904//EN"
 "http://www.w3.org/TR/2001/REC-SVG-20010904/DTD/svg10.dtd">
<svg version="1.0" xmlns="http://www.w3.org/2000/svg"
 width="200.000000pt" height="200.000000pt" viewBox="0 0 200.000000 200.000000"
 preserveAspectRatio="xMidYMid meet">
<metadata>
Created by potrace 1.16, written by Peter Selinger 2001-2019
</metadata>
<g transform="translate(0.000000,200.000000) scale(0.100000,-0.100000)"
fill="#000000" stroke="none">
<path d="M245 1190 c-16 -11 -30 -28 -30 -39 0 -11 -4 -23 -9 -28 -5 -5 -6 -2
-1 6 5 10 4 12 -3 7 -9 -5 -9 -13 -2 -27 8 -14 7 -19 -2 -20 -7 0 -4 -4 7 -9
13 -6 15 -9 5 -9 -13 -1 -13 -2 0 -11 10 -6 11 -10 3 -10 -10 0 -13 -25 -13
-90 l0 -90 70 0 70 0 0 75 c0 57 3 75 14 75 7 0 19 -7 26 -14 10 -13 16 -10
42 20 16 18 44 38 62 42 27 7 31 13 34 45 3 40 -10 47 -49 27 -16 -9 -25 -4
-57 30 -35 36 -44 40 -88 40 -32 0 -59 -7 -79 -20z"/>
<path d="M920 960 c-24 -24 -26 -77 -4 -108 12 -17 25 -22 59 -22 51 0 75 24
75 77 0 44 -30 73 -75 73 -22 0 -43 -8 -55 -20z"/>
<path d="M1410 905 l0 -75 50 0 c62 0 90 23 90 75 0 52 -28 75 -90 75 l-50 0
0 -75z"/>
<path d="M1590 960 c-24 -24 -26 -76 -5 -107 31 -44 111 -37 134 13 16 36 14
58 -10 88 -26 33 -88 37 -119 6z"/>
</g>
</svg>
